<?xml version="1.0" encoding="utf-8"?>
<svg xmlns="http://www.w3.org/2000/svg">
  <defs>
    <g id="commonPiece">
      <path d="M 4 6 H 7 L 16 14 H 13 Z" fill="black"></path>
      <circle cx="10" cy="10" r="8" stroke="black" fill="transparent"></circle>
    </g>
    <g id="heroicPiece">
      <use href="#commonPiece"></use>
      <path d="M 16 6 H 13 L 4 14 H 7 Z"></path>
    </g>
    <radialGradient id="markGradient">
      <stop offset="20%" stop-color="rgba(255,200,0,0)"></stop>
      <stop offset="95%" stop-color="gold"></stop>
    </radialGradient>
    <rect id="mark" x="0" y="0" width="20" height="20" rx="3" fill="url(#markGradient)"></rect>
    <path id="target" d="M 1 6 V 1 H 6 M 14 1 H 19 V 6 M 19 14 V 19 H 14 M 6 19 H 1 V 14" stroke="orchid" fill="transparent" stroke-width="3"></path>
    <path id="arrN" d="M 4 8 L 10 2 L 16 8 Z" fill="cadetblue"></path>
    <path id="arrNE" d="M 17 11 V 3 H 9 Z" fill="cadetblue"></path>
    <path id="arrE" d="M 18 10 L 12 4 V 16 Z" fill="cadetblue"></path>
    <path id="arrSE" d="M 17 9 V 17 H 9 Z" fill="cadetblue"></path>
    <path id="arrS" d="M 4 12 L 10 18 L 16 12 Z" fill="cadetblue"></path>
    <path id="arrSW" d="M 3 9 V 17 H 11 Z" fill="cadetblue"></path>
    <path id="arrW" d="M 2 10 L 8 4 V 16 Z" fill="cadetblue"></path>
    <path id="arrNW" d="M 3 11 V 3 H 11 Z" fill="cadetblue"></path>
  </defs>
</svg>
